<svg xmlns="http://www.w3.org/2000/svg" version="1.1" xmlns:xlink="http://www.w3.org/1999/xlink" xmlns:svgjs="http://svgjs.dev/svgjs" width="1000" height="1125" viewBox="0 0 1000 1125"><g transform="matrix(1,0,0,1,0,0)"><svg viewBox="0 0 320 360" data-background-color="#ffffff" preserveAspectRatio="xMidYMid meet" height="1125" width="1000" xmlns="http://www.w3.org/2000/svg" xmlns:xlink="http://www.w3.org/1999/xlink"><g id="tight-bounds" transform="matrix(1,0,0,1,0,0)"><svg viewBox="0 0 320 360" height="360" width="320"><g><svg></svg></g><g><svg viewBox="0 0 320 360" height="360" width="320"><g><path xmlns="http://www.w3.org/2000/svg" d="M320 187.111c0-45.764-20.238-86.866-52.203-114.908-28.043-31.964-69.145-52.203-114.908-52.203-84.302 0-152.889 68.587-152.889 152.889 0 45.753 20.231 86.848 52.185 114.891 28.043 31.975 69.152 52.22 114.926 52.22 0.299 0 0.59-0.021 0.889-0.021 0.299 0 0.59 0.021 0.889 0.021 83.456 0 151.111-67.655 151.111-151.111 0-0.299-0.021-0.59-0.021-0.889 0-0.299 0.021-0.59 0.021-0.889zM59.833 263.097c-15.093-21.255-24.071-47.143-24.256-75.097 0.48-72.928 59.492-131.943 132.423-132.423 27.954 0.185 53.845 9.163 75.097 24.256 24.366 23.627 39.57 56.64 39.57 93.056 0 71.559-58.219 129.778-129.778 129.778-36.416 0-69.429-15.204-93.056-39.57zM3.556 172.889c0-82.343 66.99-149.333 149.333-149.333 35.051 0 67.292 12.167 92.8 32.462-22.98-13.824-49.863-21.796-78.578-21.796-84.302 0-152.889 68.587-152.889 152.889 0 28.708 7.968 55.584 21.785 78.56-20.288-25.5-32.452-57.739-32.451-92.782zM167.111 318.667c-35.84 0-68.363-14.418-92.107-37.743 21.952 15.89 48.864 25.298 77.885 25.298 73.522 0 133.333-59.812 133.333-133.333 0-29.02-9.408-55.932-25.298-77.885 23.324 23.744 37.742 56.267 37.743 92.107 0 72.54-59.015 131.556-131.556 131.556z" fill="#cf001f" fill-rule="nonzero" stroke="none" stroke-width="1" stroke-linecap="butt" stroke-linejoin="miter" stroke-miterlimit="10" stroke-dasharray="" stroke-dashoffset="0" font-family="none" font-weight="none" font-size="none" text-anchor="none" style="mix-blend-mode: normal" data-fill-palette-color="tertiary"></path></g><g transform="matrix(1,0,0,1,64,112.31654676258992)"><svg viewBox="0 0 192 135.36690647482015" height="135.36690647482015" width="192"><g><svg viewBox="0 0 192 135.36690647482015" height="135.36690647482015" width="192"><g><svg viewBox="0 0 192 135.36690647482015" height="135.36690647482015" width="192"><g><svg viewBox="0 0 192 135.36690647482015" height="135.36690647482015" width="192"><g id="textblocktransform"><svg viewBox="0 0 192 135.36690647482015" height="135.36690647482015" width="192" id="textblock"><g><svg viewBox="0 0 192 135.36690647482015" height="135.36690647482015" width="192"><g transform="matrix(1,0,0,1,0,0)"><svg width="192" viewBox="-7.550000190734863 -37.25 55.59000015258789 39.20000076293945" height="135.36690647482015" data-palette-color="#cf001f"><path d="M21.55-30.95L21.8-30.75Q21.8-30.65 21.45-29.88 21.1-29.1 12.15-13.15L12.15-13.15Q19.55-16.2 25.35-21.53 31.15-26.85 31.15-30.8L31.15-30.8Q31.15-35.55 22.25-35.55L22.25-35.55Q17.05-35.55 10.5-33.15 3.95-30.75-0.75-27.05-5.45-23.35-5.45-20.05L-5.45-20.05Q-5.45-17.25-1.95-17.25L-1.95-17.25Q1-17.25 5.03-19.33 9.05-21.4 12.25-24.85L12.25-24.85Q12.65-25.5 12.98-25.5 13.3-25.5 13.3-25.15L13.3-25.15Q13.3-24 10.35-21.63 7.4-19.25 3.25-17.28-0.9-15.3-3.7-15.3L-3.7-15.3Q-7.55-15.3-7.55-19.25L-7.55-19.25Q-7.55-22.7-2.13-27 3.3-31.3 10.85-34.27 18.4-37.25 24.1-37.25L24.1-37.25Q33.6-37.25 33.6-32L33.6-32Q33.6-27.45 26.88-21.3 20.15-15.15 11.4-11.8L11.4-11.8Q6.4-2.85 4.75-0.05L4.75-0.05Q4.45 0.6 3.65 0.95 2.85 1.3 2.43 1.3 2 1.3 2 1.05L2 1.05 8.65-10.85Q5.5-9.9 2.8-9.6L2.8-9.6Q2.5-9.6 2.5-10.23 2.5-10.85 3.05-10.9L3.05-10.9Q6-11.05 9.4-12.15L9.4-12.15 19.4-30Q19.55-30.4 20.3-30.68 21.05-30.95 21.55-30.95L21.55-30.95ZM22.1-15.25L22.1-15.25Q22.85-15.25 22.85-14.5 22.85-13.75 22.15-12.98 21.45-12.2 20.6-12.2L20.6-12.2Q19.9-12.2 19.9-13.18 19.9-14.15 20.7-14.7 21.5-15.25 22.1-15.25ZM17.4-8.65L17.4-8.65Q17.65-9.05 18.1-9.05 18.55-9.05 19-8.6L19-8.6Q19-8.4 18.35-7.7 17.7-7 16.15-4.58 14.6-2.15 14.6-1.35L14.6-1.35Q14.6-0.85 15.35-0.75L15.35-0.75Q16.35-0.75 18.45-1.73 20.55-2.7 22.15-3.7L22.15-3.7 23.75-4.7Q23.8-4.6 23.8-4.3 23.8-4 23.35-3.8L23.35-3.8Q16.6 0.8 13.95 0.8L13.95 0.8Q12.65 0.8 12.65-0.5 12.65-1.8 14.07-4.13 15.5-6.45 17.4-8.65ZM22.29-3.8L22.29-3.8Q23.24-4.35 24.79-5.55L24.79-5.55Q28.59-8.55 28.84-8.55L28.84-8.55Q29.59-8.55 29.59-7.9 29.59-7.25 28.82-5.9 28.04-4.55 27.07-3.1 26.09-1.65 25.95-1.35L25.95-1.35Q25.99-1.3 26.17-1.3 26.34-1.3 28.14-2.63 29.95-3.95 31.89-5.43 33.84-6.9 34.2-7.13 34.55-7.35 34.84-7.35L34.84-7.35Q35.45-7.3 35.45-6.65L35.45-6.65Q35.45-6.4 33.74-4.13 32.05-1.85 32.05-1.2L32.05-1.2Q32.05-0.75 33.12-0.75 34.2-0.75 36.3-1.73 38.39-2.7 39.99-3.7L39.99-3.7 41.59-4.7Q41.64-4.6 41.64-4.3 41.64-4 41.2-3.8L41.2-3.8Q34.45 0.8 31.79 0.8L31.79 0.8Q30.24 0.8 30.24-0.4L30.24-0.4Q30.24-1.55 30.92-2.6 31.59-3.65 32.09-4.38 32.59-5.1 32.59-5.15L32.59-5.15Q30.29-3.5 27.14-1.2 23.99 1.1 23.59 1.1L23.59 1.1Q23.29 1.1 23.29 0.4 23.29-0.3 25.27-3.25 27.24-6.2 27.24-6.4 27.24-6.6 27.14-6.6L27.14-6.6 26.64-6.35 24.14-4.35Q23.89-4.15 23.19-3.7 22.49-3.25 22.32-3.25 22.14-3.25 22.14-3.48 22.14-3.7 22.29-3.8ZM43.24-5.45L43.24-5.45Q40.84-3.25 40.19-3.25L40.19-3.25Q39.99-3.25 39.99-3.45 39.99-3.65 40.14-3.8L40.14-3.8Q41.34-4.45 42.94-5.9L42.94-5.9Q42.69-6.5 42.69-7.2L42.69-7.2Q42.69-8.9 44.44-10.45 46.19-12 47.39-12L47.39-12Q48.04-12 48.04-11.38 48.04-10.75 46.04-8.35L46.04-8.35Q45.84-8.1 45.59-7.85 45.34-7.6 45.07-7.28 44.79-6.95 44.64-6.8L44.64-6.8Q44.89-6.55 45.54-5.93 46.19-5.3 46.59-4.9L46.59-4.9Q47.69-3.8 47.69-2.15 47.69-0.5 45.64 0.73 43.59 1.95 41.37 1.95 39.14 1.95 39.14 0.63 39.14-0.7 41.19-1.8 43.24-2.9 45.49-3.3L45.49-3.3Q45.19-3.7 44.37-4.35 43.54-5 43.24-5.45ZM45.84-2.7Q44.14-2.5 42.64-1.78 41.14-1.05 41.14-0.08 41.14 0.9 42.52 0.9 43.89 0.9 44.97 0.25 46.04-0.4 46.04-1.2 46.04-2 45.84-2.7L45.84-2.7ZM44.29-7.2L44.29-7.2 45.59-8.6Q46.89-10.15 46.89-10.48 46.89-10.8 46.59-10.8L46.59-10.8Q45.74-10.8 44.84-9.98 43.94-9.15 43.94-8.38 43.94-7.6 44.29-7.2Z" opacity="1" transform="matrix(1,0,0,1,0,0)" fill="#cf001f" class="undefined-text-0" data-fill-palette-color="primary" id="text-0"></path></svg></g></svg></g></svg></g></svg></g></svg></g></svg></g></svg></g></svg></g><defs></defs></svg><rect width="320" height="360" fill="none" stroke="none" visibility="hidden"></rect></g></svg></g></svg>